<?xml version="1.0" encoding="UTF-8" ?>
<!DOCTYPE svg PUBLIC "-//W3C//DTD SVG 1.1//EN" "http://www.w3.org/Graphics/SVG/1.1/DTD/svg11.dtd">
<svg width="300pt" height="300pt" viewBox="0 0 300 300" version="1.1" xmlns="http://www.w3.org/2000/svg">
  <path fill="#9e9ec4" opacity="1.00"
    d=" M 0.00 0.00 L 300.00 0.00 L 300.00 300.00 L 0.00 300.00 L 0.00 0.00 M 173.97 22.89 C 166.38 23.35 159.03 25.40 151.96 28.09 C 150.00 28.86 148.13 30.00 145.98 30.09 C 140.83 30.56 135.55 30.83 130.67 32.68 C 128.72 33.39 128.35 35.74 127.11 37.19 C 124.12 38.64 120.82 36.94 117.89 36.11 C 110.85 33.93 105.52 28.60 100.04 23.96 C 99.11 22.85 97.68 23.31 96.67 23.99 L 95.77 24.08 C 95.93 24.46 96.27 25.24 96.44 25.63 C 96.31 27.18 95.98 28.86 96.87 30.27 C 99.59 35.57 103.63 40.06 108.02 44.04 C 107.52 44.18 106.51 44.47 106.00 44.62 C 96.10 50.11 88.66 58.91 81.75 67.67 C 77.55 73.98 73.41 80.42 70.58 87.48 C 69.63 89.44 68.97 91.80 67.01 93.02 C 64.09 95.08 60.45 95.50 57.04 96.22 C 57.36 99.04 60.43 100.18 61.95 102.29 C 62.49 104.54 61.48 106.79 60.89 108.93 C 58.77 114.77 57.44 120.90 54.52 126.42 C 53.48 128.34 52.57 130.56 50.63 131.75 C 48.80 132.16 46.91 132.17 45.05 132.31 C 45.62 133.52 45.79 135.16 47.19 135.74 C 52.93 138.70 59.44 139.63 65.81 140.07 C 63.47 144.72 66.15 149.91 64.71 154.69 C 63.13 157.37 60.76 159.57 58.00 161.01 C 56.86 161.69 55.39 162.20 55.11 163.67 C 61.66 165.37 68.57 166.84 75.33 165.53 C 77.23 165.26 79.13 164.97 81.03 164.73 C 81.98 165.86 82.57 167.35 81.91 168.79 C 80.88 172.35 77.82 174.76 76.14 177.99 C 80.24 179.62 84.57 176.20 88.61 177.23 C 90.35 179.52 91.99 181.89 93.61 184.26 C 93.22 186.97 91.20 189.23 91.19 192.03 C 91.11 195.71 91.09 199.46 89.65 202.92 C 88.06 199.78 86.15 196.80 83.89 194.10 C 84.81 192.63 85.82 191.21 86.53 189.62 C 87.20 187.21 86.80 184.67 86.78 182.21 C 85.32 181.69 83.81 180.85 82.21 181.30 C 79.05 181.93 77.23 184.82 75.16 187.00 C 73.40 184.45 71.97 181.42 69.17 179.84 C 67.70 178.91 65.21 178.38 64.27 180.30 C 63.59 185.51 64.76 191.50 68.54 195.31 L 68.40 195.88 C 64.37 196.08 63.68 201.30 64.71 204.38 C 66.06 207.94 64.99 211.74 65.79 215.37 C 66.69 219.51 64.54 223.49 64.52 227.63 C 64.40 233.48 64.97 239.71 68.35 244.69 C 71.24 249.97 76.77 253.61 82.75 254.27 C 87.56 255.42 92.39 254.16 97.08 253.10 C 96.26 256.95 95.48 260.82 95.16 264.76 C 95.60 264.87 96.48 265.10 96.92 265.21 C 98.78 268.80 103.34 268.83 106.53 270.62 C 109.93 271.86 113.33 275.50 117.05 273.07 C 115.95 275.06 115.69 277.40 116.42 279.57 C 117.52 281.16 119.25 282.33 121.13 282.75 C 123.00 283.10 124.48 281.67 125.99 280.85 C 126.00 279.52 125.99 278.20 125.96 276.88 C 126.41 276.99 127.30 277.21 127.75 277.32 L 127.91 278.11 C 133.35 277.79 138.62 279.68 144.05 279.32 C 145.70 279.36 147.60 278.87 148.87 280.23 C 144.73 279.55 140.45 281.04 136.38 279.76 C 134.53 279.14 132.59 278.95 130.66 279.23 C 132.53 280.55 134.86 280.64 137.05 280.86 C 141.23 281.20 145.48 281.61 149.62 280.73 C 152.53 280.70 155.43 280.42 158.34 280.40 C 158.27 280.79 158.15 281.55 158.09 281.94 C 158.49 281.90 159.31 281.82 159.72 281.78 C 160.44 283.25 161.28 284.66 162.16 286.05 C 164.85 286.06 168.28 286.42 169.78 283.60 C 171.11 280.10 168.78 276.57 168.79 273.00 C 169.56 275.15 170.12 277.75 172.21 279.04 C 179.12 280.30 186.01 278.52 192.90 278.05 C 198.26 277.23 203.60 276.23 209.03 275.86 C 212.41 275.64 215.75 274.96 219.00 274.00 C 219.44 273.74 220.33 273.21 220.77 272.94 C 219.12 267.96 218.86 262.65 217.33 257.64 C 213.78 245.50 209.65 233.45 203.63 222.29 C 203.15 220.85 201.65 219.16 202.71 217.66 C 205.32 213.92 208.07 210.22 209.85 205.97 C 211.26 203.25 210.92 200.11 210.86 197.16 C 209.08 196.24 207.22 195.50 205.42 194.61 C 203.64 192.88 203.20 190.29 202.86 187.94 C 205.97 187.98 209.03 188.60 212.10 189.06 C 211.58 187.63 210.74 186.37 209.73 185.26 C 207.06 182.20 204.83 178.79 202.79 175.30 C 206.27 175.91 209.95 176.44 213.39 175.36 C 218.14 173.56 222.59 169.95 223.82 164.81 C 225.03 161.60 224.50 158.16 224.08 154.86 C 227.14 155.52 229.08 158.16 231.27 160.16 C 230.55 161.20 229.91 162.30 229.15 163.31 C 229.93 164.66 231.34 164.93 232.80 164.97 C 233.16 160.07 231.66 155.30 231.51 150.42 C 230.43 149.32 229.14 148.35 228.45 146.94 C 228.89 145.90 229.48 144.93 230.05 143.96 C 229.65 143.75 228.86 143.33 228.46 143.12 C 228.79 142.84 229.45 142.28 229.77 142.00 C 231.12 142.58 232.51 143.18 234.02 143.04 C 239.31 142.98 244.65 141.18 248.57 137.54 C 248.77 136.20 248.97 134.86 249.17 133.52 C 250.41 133.58 251.64 133.64 252.89 133.69 C 252.78 133.34 252.56 132.64 252.46 132.28 C 250.13 131.26 247.53 130.97 245.32 129.68 C 242.64 128.11 240.14 126.25 237.78 124.23 C 236.17 122.77 234.40 121.13 234.16 118.85 C 233.42 114.14 234.45 109.29 233.26 104.64 C 232.61 101.95 231.93 99.28 231.34 96.59 C 229.92 90.16 226.99 84.22 224.83 78.04 C 230.12 75.18 235.38 71.52 238.25 66.08 C 234.75 64.68 230.84 65.14 227.35 63.69 C 222.80 61.95 218.22 59.79 214.77 56.27 C 213.53 55.13 212.66 53.20 210.71 53.37 C 210.00 52.23 209.10 51.95 208.00 52.53 C 207.61 50.44 206.14 48.79 204.66 47.36 C 199.48 42.48 192.98 39.38 186.56 36.49 C 182.97 34.86 179.05 34.13 175.39 32.67 C 175.42 32.36 175.46 31.75 175.48 31.45 C 178.70 29.22 182.13 27.25 185.72 25.66 C 187.75 24.67 190.03 25.29 192.16 25.52 C 192.07 25.00 191.90 23.95 191.81 23.43 C 185.91 22.49 179.91 21.89 173.97 22.89 Z" />
  <path fill="#312b67" opacity="1.00"
    d=" M 173.97 22.89 C 179.91 21.89 185.91 22.49 191.81 23.43 C 191.90 23.95 192.07 25.00 192.16 25.52 C 190.03 25.29 187.75 24.67 185.72 25.66 C 182.13 27.25 178.70 29.22 175.48 31.45 C 175.46 31.75 175.42 32.36 175.39 32.67 C 179.05 34.13 182.97 34.86 186.56 36.49 C 192.98 39.38 199.48 42.48 204.66 47.36 C 206.14 48.79 207.61 50.44 208.00 52.53 C 208.07 52.86 208.20 53.53 208.27 53.86 C 207.09 53.07 206.03 52.15 205.01 51.18 C 201.49 45.43 194.98 42.61 189.10 39.89 C 184.62 37.84 180.03 35.92 175.26 34.66 C 172.77 33.99 170.35 35.22 167.97 35.79 C 171.51 30.11 178.33 28.34 183.17 24.14 C 175.68 23.70 168.33 25.60 161.06 27.10 C 154.71 28.43 149.01 31.60 143.39 34.71 C 143.14 34.11 142.65 32.91 142.40 32.30 C 138.51 32.65 134.56 33.27 131.01 34.96 C 129.96 35.92 129.88 37.49 129.34 38.73 C 123.47 40.67 117.37 38.46 112.06 35.95 C 106.55 32.45 101.98 27.74 96.67 23.99 C 97.68 23.31 99.11 22.85 100.04 23.96 C 105.52 28.60 110.85 33.93 117.89 36.11 C 120.82 36.94 124.12 38.64 127.11 37.19 C 128.35 35.74 128.72 33.39 130.67 32.68 C 135.55 30.83 140.83 30.56 145.98 30.09 C 148.13 30.00 150.00 28.86 151.96 28.09 C 159.03 25.40 166.38 23.35 173.97 22.89 Z" />
  <path fill="#ffffff" opacity="1.00"
    d=" M 95.77 24.08 L 96.67 23.99 C 101.98 27.74 106.55 32.45 112.06 35.95 C 108.96 35.66 105.86 35.52 102.76 35.35 C 100.32 32.34 98.43 28.94 96.44 25.63 C 96.27 25.24 95.93 24.46 95.77 24.08 Z" />
  <path fill="#645677" opacity="1.00"
    d=" M 161.06 27.10 C 168.33 25.60 175.68 23.70 183.17 24.14 C 178.33 28.34 171.51 30.11 167.97 35.79 C 170.35 35.22 172.77 33.99 175.26 34.66 C 180.03 35.92 184.62 37.84 189.10 39.89 C 193.43 44.85 198.90 48.74 205.01 51.18 C 206.03 52.15 207.09 53.07 208.27 53.86 C 209.08 54.39 209.98 54.68 210.98 54.71 C 213.68 58.12 216.89 61.25 220.84 63.16 C 225.22 65.45 230.16 66.21 234.92 67.29 C 231.93 70.99 228.33 74.72 223.56 75.89 C 222.01 73.32 220.82 70.23 217.95 68.85 C 218.98 72.87 221.57 76.19 223.27 79.92 C 224.27 87.20 223.67 94.77 226.22 101.77 C 227.42 106.61 230.16 110.91 231.16 115.79 C 230.82 116.87 230.06 118.03 230.95 119.07 C 234.43 124.53 239.66 128.73 245.32 131.78 C 247.55 132.50 247.36 135.48 246.08 136.98 C 244.39 138.51 242.23 139.39 240.12 140.13 C 236.77 141.32 233.05 140.59 229.77 142.00 C 229.45 142.28 228.79 142.84 228.46 143.12 C 227.15 142.89 225.82 142.73 224.50 142.58 C 220.85 137.77 217.65 132.63 214.64 127.39 C 212.90 124.46 211.77 120.97 208.88 118.91 C 209.24 120.78 209.69 122.67 210.59 124.37 C 213.93 130.80 217.99 136.81 221.91 142.89 C 211.58 141.59 201.28 138.41 192.79 132.23 C 189.46 129.90 187.47 126.15 184.08 123.89 C 184.59 125.58 185.05 127.37 186.25 128.73 C 191.28 134.82 198.52 138.57 205.86 141.15 C 212.29 143.21 218.93 144.61 225.63 145.43 C 227.22 148.38 228.38 151.54 229.10 154.82 C 227.38 154.10 225.64 153.38 224.12 152.28 C 224.00 152.19 223.74 152.00 223.61 151.91 L 223.06 151.48 C 223.12 149.97 222.41 149.12 220.93 148.94 C 218.87 147.70 216.88 145.46 214.24 146.12 C 211.30 146.83 209.66 149.67 207.89 151.88 C 204.91 156.24 200.74 159.59 196.47 162.60 C 194.92 163.87 192.86 163.70 190.99 163.75 C 192.15 158.45 195.02 153.57 195.12 148.05 C 195.18 145.52 195.39 142.90 194.65 140.45 C 190.27 135.08 183.63 131.87 180.09 125.78 C 178.17 122.79 175.41 120.46 173.46 117.49 C 171.16 113.99 169.24 110.25 167.54 106.42 C 167.14 105.30 166.26 104.53 165.43 103.74 C 165.38 105.35 165.36 106.97 165.33 108.58 C 162.01 103.16 162.20 96.42 162.33 90.27 C 162.52 88.75 161.42 87.81 159.97 87.82 C 159.73 90.79 159.79 93.78 160.26 96.73 C 161.18 102.55 161.65 108.44 162.87 114.21 C 163.92 119.70 165.62 125.08 166.01 130.68 C 163.54 132.23 160.47 133.26 158.99 135.96 C 161.82 135.35 164.50 134.24 167.20 133.20 C 164.24 136.27 160.67 138.84 158.78 142.79 C 153.84 140.97 149.06 138.44 145.27 134.73 C 142.04 131.67 141.29 127.08 139.79 123.08 C 139.34 123.39 138.45 124.00 138.00 124.30 C 140.19 131.47 143.69 138.15 147.45 144.60 C 149.57 148.39 153.11 151.15 155.09 155.04 C 149.83 154.01 144.87 151.57 140.57 148.42 C 132.26 140.61 124.27 132.09 119.21 121.75 C 115.88 115.70 113.59 109.15 111.49 102.59 C 110.53 98.09 109.81 93.54 109.10 89.00 C 108.41 84.59 109.86 80.14 108.90 75.77 C 106.48 78.59 106.95 82.58 106.97 86.03 C 107.05 90.27 108.65 94.50 107.91 98.73 C 105.40 102.87 102.06 106.46 99.68 110.70 C 97.31 114.42 95.64 118.55 92.95 122.07 C 93.67 117.24 95.93 112.74 96.09 107.81 C 93.64 109.59 93.19 112.69 92.45 115.41 C 90.81 122.39 88.30 129.15 87.21 136.26 C 86.34 139.97 86.37 144.08 84.11 147.31 C 83.68 147.97 83.30 148.70 83.44 149.53 C 83.65 152.56 83.84 155.62 84.44 158.61 C 85.46 159.95 86.76 161.06 87.70 162.46 C 87.53 166.60 86.76 170.74 87.58 174.87 C 84.80 175.69 81.98 176.43 79.15 177.06 C 81.64 173.55 84.04 169.96 85.80 166.02 C 83.73 164.16 81.52 162.35 80.04 159.96 C 74.87 151.23 71.99 141.21 71.85 131.06 C 71.37 131.05 70.42 131.03 69.94 131.02 C 69.36 137.75 71.50 144.24 73.44 150.57 C 75.11 155.70 77.82 160.42 81.03 164.73 C 79.13 164.97 77.23 165.26 75.33 165.53 C 74.19 163.68 71.86 164.11 70.03 163.98 C 66.70 164.01 63.37 163.72 60.13 162.94 C 63.94 158.97 68.29 154.70 68.98 148.95 C 68.61 147.32 67.91 145.77 67.61 144.13 C 67.78 141.99 68.46 139.95 68.96 137.88 C 66.38 137.37 63.76 137.92 61.16 137.83 C 58.39 137.50 55.76 136.47 53.07 135.77 C 54.38 132.83 55.69 129.89 56.81 126.87 C 59.04 120.70 61.30 114.53 63.22 108.25 C 63.90 105.94 64.76 103.63 64.84 101.21 C 63.88 99.61 61.90 98.98 60.46 97.87 C 63.40 96.55 66.52 95.71 69.69 95.22 C 71.98 89.85 73.68 84.22 76.72 79.21 C 77.80 78.87 78.86 78.51 79.93 78.13 C 82.41 77.31 85.05 76.74 87.27 75.29 C 89.70 73.57 90.83 70.70 92.33 68.25 C 95.81 63.36 98.84 58.17 102.20 53.19 C 103.19 51.91 103.46 50.32 103.32 48.73 C 104.97 47.62 106.52 46.39 108.05 45.14 C 107.54 45.01 106.51 44.75 106.00 44.62 C 106.51 44.47 107.52 44.18 108.02 44.04 C 110.72 45.46 113.64 46.48 116.71 46.65 C 116.14 44.40 113.34 44.34 111.65 43.31 C 107.73 41.91 105.19 38.52 102.76 35.35 C 105.86 35.52 108.96 35.66 112.06 35.95 C 117.37 38.46 123.47 40.67 129.34 38.73 C 129.88 37.49 129.96 35.92 131.01 34.96 C 134.56 33.27 138.51 32.65 142.40 32.30 C 142.65 32.91 143.14 34.11 143.39 34.71 C 149.01 31.60 154.71 28.43 161.06 27.10 M 201.10 58.73 C 202.25 61.88 203.81 64.86 205.51 67.75 C 205.16 68.33 204.45 69.48 204.10 70.06 C 202.19 67.88 199.81 66.08 197.17 64.89 C 193.87 63.82 190.39 63.43 186.97 62.92 C 187.02 65.64 188.04 68.19 189.80 70.25 C 190.65 74.13 193.26 77.70 197.09 79.06 C 197.81 79.07 199.26 79.08 199.98 79.09 C 199.89 78.63 199.70 77.71 199.61 77.25 C 202.12 76.43 204.85 76.34 207.23 75.12 L 207.06 74.16 C 207.58 74.14 208.61 74.09 209.13 74.07 C 209.60 74.05 210.54 74.00 211.01 73.98 C 210.48 69.91 208.45 66.21 206.21 62.85 C 204.84 61.15 203.54 58.83 201.10 58.73 M 100.46 65.37 C 99.16 67.15 98.07 69.10 97.34 71.18 C 96.78 73.05 98.85 74.03 100.00 75.03 C 103.49 73.27 105.65 69.21 104.83 65.33 C 104.03 63.34 101.46 63.94 100.46 65.37 M 131.30 69.14 C 128.31 71.18 126.36 75.03 127.33 78.65 C 128.02 81.07 129.44 83.30 131.32 84.98 C 134.63 86.63 136.73 82.71 138.29 80.45 C 139.58 77.04 139.25 72.31 136.06 70.00 C 134.76 68.87 132.91 68.80 131.30 69.14 M 143.16 74.18 C 143.94 76.07 143.83 79.95 146.68 79.66 C 147.51 77.76 148.64 74.83 146.56 73.35 C 145.30 72.62 144.22 73.61 143.16 74.18 Z" />
  <path fill="#312b67" opacity="1.00"
    d=" M 96.44 25.63 C 98.43 28.94 100.32 32.34 102.76 35.35 C 105.19 38.52 107.73 41.91 111.65 43.31 C 113.34 44.34 116.14 44.40 116.71 46.65 C 113.64 46.48 110.72 45.46 108.02 44.04 C 103.63 40.06 99.59 35.57 96.87 30.27 C 95.98 28.86 96.31 27.18 96.44 25.63 Z" />
  <path fill="#ffffff" opacity="1.00"
    d=" M 189.10 39.89 C 194.98 42.61 201.49 45.43 205.01 51.18 C 198.90 48.74 193.43 44.85 189.10 39.89 Z" />
  <path fill="#312b67" opacity="1.00"
    d=" M 81.75 67.67 C 88.66 58.91 96.10 50.11 106.00 44.62 C 106.51 44.75 107.54 45.01 108.05 45.14 C 106.52 46.39 104.97 47.62 103.32 48.73 C 97.35 52.44 92.53 57.64 88.07 62.99 C 83.79 68.03 79.93 73.43 76.72 79.21 C 73.68 84.22 71.98 89.85 69.69 95.22 C 66.52 95.71 63.40 96.55 60.46 97.87 C 61.90 98.98 63.88 99.61 64.84 101.21 C 64.76 103.63 63.90 105.94 63.22 108.25 C 61.30 114.53 59.04 120.70 56.81 126.87 C 55.02 130.13 52.38 132.82 49.31 134.89 C 50.56 135.16 51.82 135.45 53.07 135.77 C 55.76 136.47 58.39 137.50 61.16 137.83 C 63.76 137.92 66.38 137.37 68.96 137.88 C 68.46 139.95 67.78 141.99 67.61 144.13 C 67.91 145.77 68.61 147.32 68.98 148.95 C 68.29 154.70 63.94 158.97 60.13 162.94 C 63.37 163.72 66.70 164.01 70.03 163.98 C 71.86 164.11 74.19 163.68 75.33 165.53 C 68.57 166.84 61.66 165.37 55.11 163.67 C 55.39 162.20 56.86 161.69 58.00 161.01 C 60.76 159.57 63.13 157.37 64.71 154.69 C 66.15 149.91 63.47 144.72 65.81 140.07 C 59.44 139.63 52.93 138.70 47.19 135.74 C 45.79 135.16 45.62 133.52 45.05 132.31 C 46.91 132.17 48.80 132.16 50.63 131.75 C 52.57 130.56 53.48 128.34 54.52 126.42 C 57.44 120.90 58.77 114.77 60.89 108.93 C 61.48 106.79 62.49 104.54 61.95 102.29 C 60.43 100.18 57.36 99.04 57.04 96.22 C 60.45 95.50 64.09 95.08 67.01 93.02 C 68.97 91.80 69.63 89.44 70.58 87.48 C 73.41 80.42 77.55 73.98 81.75 67.67 Z" />
  <path fill="#ffffff" opacity="1.00"
    d=" M 88.07 62.99 C 92.53 57.64 97.35 52.44 103.32 48.73 C 103.46 50.32 103.19 51.91 102.20 53.19 C 98.84 58.17 95.81 63.36 92.33 68.25 C 88.23 71.59 83.56 74.24 79.93 78.13 C 78.86 78.51 77.80 78.87 76.72 79.21 C 79.93 73.43 83.79 68.03 88.07 62.99 Z" />
  <path fill="#ffffff" opacity="1.00"
    d=" M 208.00 52.53 C 209.10 51.95 210.00 52.23 210.71 53.37 C 210.78 53.70 210.91 54.37 210.98 54.71 C 209.98 54.68 209.08 54.39 208.27 53.86 C 208.20 53.53 208.07 52.86 208.00 52.53 Z" />
  <path fill="#312b67" opacity="1.00"
    d=" M 210.71 53.37 C 212.66 53.20 213.53 55.13 214.77 56.27 C 218.22 59.79 222.80 61.95 227.35 63.69 C 230.84 65.14 234.75 64.68 238.25 66.08 C 235.38 71.52 230.12 75.18 224.83 78.04 C 226.99 84.22 229.92 90.16 231.34 96.59 C 231.93 99.28 232.61 101.95 233.26 104.64 C 234.45 109.29 233.42 114.14 234.16 118.85 C 234.40 121.13 236.17 122.77 237.78 124.23 C 240.14 126.25 242.64 128.11 245.32 129.68 C 247.53 130.97 250.13 131.26 252.46 132.28 C 252.56 132.64 252.78 133.34 252.89 133.69 C 251.64 133.64 250.41 133.58 249.17 133.52 C 248.97 134.86 248.77 136.20 248.57 137.54 C 244.65 141.18 239.31 142.98 234.02 143.04 C 232.51 143.18 231.12 142.58 229.77 142.00 C 233.05 140.59 236.77 141.32 240.12 140.13 C 242.23 139.39 244.39 138.51 246.08 136.98 C 247.36 135.48 247.55 132.50 245.32 131.78 C 239.66 128.73 234.43 124.53 230.95 119.07 C 230.06 118.03 230.82 116.87 231.16 115.79 C 232.74 112.61 231.85 109.03 231.39 105.69 C 229.81 96.82 227.12 88.08 223.27 79.92 C 221.57 76.19 218.98 72.87 217.95 68.85 C 220.82 70.23 222.01 73.32 223.56 75.89 C 228.33 74.72 231.93 70.99 234.92 67.29 C 230.16 66.21 225.22 65.45 220.84 63.16 C 216.89 61.25 213.68 58.12 210.98 54.71 C 210.91 54.37 210.78 53.70 210.71 53.37 Z" />
  <path fill="#ffffff" opacity="1.00"
    d=" M 201.10 58.73 C 203.54 58.83 204.84 61.15 206.21 62.85 C 208.45 66.21 210.48 69.91 211.01 73.98 C 210.54 74.00 209.60 74.05 209.13 74.07 C 207.89 71.98 206.74 69.84 205.51 67.75 C 203.81 64.86 202.25 61.88 201.10 58.73 Z" />
  <path fill="#ffffff" opacity="1.00"
    d=" M 186.97 62.92 C 190.39 63.43 193.87 63.82 197.17 64.89 C 199.81 66.08 202.19 67.88 204.10 70.06 C 205.15 71.38 206.12 72.76 207.06 74.16 L 207.23 75.12 C 204.43 74.43 201.63 73.79 198.82 73.17 C 199.09 74.53 199.35 75.89 199.61 77.25 C 199.70 77.71 199.89 78.63 199.98 79.09 C 199.26 79.08 197.81 79.07 197.09 79.06 C 194.54 76.22 192.10 73.28 189.80 70.25 C 188.04 68.19 187.02 65.64 186.97 62.92 Z" />
  <path fill="#ffffff" opacity="1.00"
    d=" M 100.46 65.37 C 101.46 63.94 104.03 63.34 104.83 65.33 C 105.65 69.21 103.49 73.27 100.00 75.03 C 98.85 74.03 96.78 73.05 97.34 71.18 C 98.07 69.10 99.16 67.15 100.46 65.37 Z" />
  <path fill="#bea37b" opacity="1.00"
    d=" M 79.93 78.13 C 83.56 74.24 88.23 71.59 92.33 68.25 C 90.83 70.70 89.70 73.57 87.27 75.29 C 85.05 76.74 82.41 77.31 79.93 78.13 Z" />
  <path fill="#bea37b" opacity="1.00"
    d=" M 205.51 67.75 C 206.74 69.84 207.89 71.98 209.13 74.07 C 208.61 74.09 207.58 74.14 207.06 74.16 C 206.12 72.76 205.15 71.38 204.10 70.06 C 204.45 69.48 205.16 68.33 205.51 67.75 Z" />
  <path fill="#ffffff" opacity="1.00"
    d=" M 131.30 69.14 C 132.91 68.80 134.76 68.87 136.06 70.00 C 139.25 72.31 139.58 77.04 138.29 80.45 C 136.73 82.71 134.63 86.63 131.32 84.98 C 129.44 83.30 128.02 81.07 127.33 78.65 C 126.36 75.03 128.31 71.18 131.30 69.14 Z" />
  <path fill="#a89ca6" opacity="1.00"
    d=" M 189.80 70.25 C 192.10 73.28 194.54 76.22 197.09 79.06 C 193.26 77.70 190.65 74.13 189.80 70.25 Z" />
  <path fill="#f5efda" opacity="1.00"
    d=" M 143.16 74.18 C 144.22 73.61 145.30 72.62 146.56 73.35 C 148.64 74.83 147.51 77.76 146.68 79.66 C 143.83 79.95 143.94 76.07 143.16 74.18 Z" />
  <path fill="#bea37b" opacity="1.00"
    d=" M 198.82 73.17 C 201.63 73.79 204.43 74.43 207.23 75.12 C 204.85 76.34 202.12 76.43 199.61 77.25 C 199.35 75.89 199.09 74.53 198.82 73.17 Z" />
  <path fill="#312b67" opacity="1.00"
    d=" M 106.97 86.03 C 106.95 82.58 106.48 78.59 108.90 75.77 C 109.86 80.14 108.41 84.59 109.10 89.00 C 109.81 93.54 110.53 98.09 111.49 102.59 C 113.59 109.15 115.88 115.70 119.21 121.75 C 124.27 132.09 132.26 140.61 140.57 148.42 C 144.87 151.57 149.83 154.01 155.09 155.04 C 153.11 151.15 149.57 148.39 147.45 144.60 C 143.69 138.15 140.19 131.47 138.00 124.30 C 138.45 124.00 139.34 123.39 139.79 123.08 C 141.29 127.08 142.04 131.67 145.27 134.73 C 149.06 138.44 153.84 140.97 158.78 142.79 C 160.67 138.84 164.24 136.27 167.20 133.20 C 164.50 134.24 161.82 135.35 158.99 135.96 C 160.47 133.26 163.54 132.23 166.01 130.68 C 165.62 125.08 163.92 119.70 162.87 114.21 C 161.65 108.44 161.18 102.55 160.26 96.73 C 159.79 93.78 159.73 90.79 159.97 87.82 C 161.42 87.81 162.52 88.75 162.33 90.27 C 162.20 96.42 162.01 103.16 165.33 108.58 C 165.36 106.97 165.38 105.35 165.43 103.74 C 166.26 104.53 167.14 105.30 167.54 106.42 C 169.24 110.25 171.16 113.99 173.46 117.49 C 175.41 120.46 178.17 122.79 180.09 125.78 C 183.63 131.87 190.27 135.08 194.65 140.45 C 195.39 142.90 195.18 145.52 195.12 148.05 C 195.02 153.57 192.15 158.45 190.99 163.75 C 192.86 163.70 194.92 163.87 196.47 162.60 C 200.74 159.59 204.91 156.24 207.89 151.88 C 209.66 149.67 211.30 146.83 214.24 146.12 C 216.88 145.46 218.87 147.70 220.93 148.94 C 221.04 150.27 221.75 151.12 223.06 151.48 L 223.61 151.91 C 223.74 152.00 224.00 152.19 224.12 152.28 C 225.64 153.38 227.38 154.10 229.10 154.82 C 228.38 151.54 227.22 148.38 225.63 145.43 C 218.93 144.61 212.29 143.21 205.86 141.15 C 198.52 138.57 191.28 134.82 186.25 128.73 C 185.05 127.37 184.59 125.58 184.08 123.89 C 187.47 126.15 189.46 129.90 192.79 132.23 C 201.28 138.41 211.58 141.59 221.91 142.89 C 217.99 136.81 213.93 130.80 210.59 124.37 C 209.69 122.67 209.24 120.78 208.88 118.91 C 211.77 120.97 212.90 124.46 214.64 127.39 C 217.65 132.63 220.85 137.77 224.50 142.58 C 225.82 142.73 227.15 142.89 228.46 143.12 C 228.86 143.33 229.65 143.75 230.05 143.96 C 229.48 144.93 228.89 145.90 228.45 146.94 C 229.14 148.35 230.43 149.32 231.51 150.42 C 231.66 155.30 233.16 160.07 232.80 164.97 C 231.34 164.93 229.93 164.66 229.15 163.31 C 229.91 162.30 230.55 161.20 231.27 160.16 C 229.08 158.16 227.14 155.52 224.08 154.86 C 224.50 158.16 225.03 161.60 223.82 164.81 C 222.59 169.95 218.14 173.56 213.39 175.36 C 209.95 176.44 206.27 175.91 202.79 175.30 C 204.83 178.79 207.06 182.20 209.73 185.26 C 210.74 186.37 211.58 187.63 212.10 189.06 C 209.03 188.60 205.97 187.98 202.86 187.94 C 203.20 190.29 203.64 192.88 205.42 194.61 C 207.22 195.50 209.08 196.24 210.86 197.16 C 210.92 200.11 211.26 203.25 209.85 205.97 C 208.07 210.22 205.32 213.92 202.71 217.66 C 201.65 219.16 203.15 220.85 203.63 222.29 C 209.65 233.45 213.78 245.50 217.33 257.64 C 218.86 262.65 219.12 267.96 220.77 272.94 C 220.33 273.21 219.44 273.74 219.00 274.00 C 214.94 256.55 210.05 239.15 201.95 223.09 C 200.77 220.85 199.04 218.97 197.30 217.15 C 199.52 216.24 202.21 215.68 203.41 213.36 C 206.17 208.62 210.34 203.45 208.62 197.61 C 206.92 197.22 205.23 196.82 203.54 196.42 C 201.86 192.41 200.42 188.30 198.55 184.38 C 197.14 184.18 195.73 183.98 194.33 183.77 C 194.18 183.39 193.88 182.62 193.73 182.23 C 195.34 182.22 196.96 182.20 198.57 182.20 C 199.74 183.51 200.85 184.91 202.29 185.95 C 203.87 186.16 205.47 186.08 207.07 186.07 C 205.07 182.28 202.86 178.60 200.32 175.15 C 198.23 177.39 196.11 179.72 193.22 180.90 L 192.94 180.14 C 195.57 177.41 197.53 173.98 200.59 171.70 C 202.68 171.10 204.29 173.42 206.22 173.95 C 212.99 175.19 220.34 170.63 222.14 163.95 C 223.65 159.12 222.23 153.72 219.20 149.79 C 217.52 147.42 213.51 147.46 212.14 150.13 C 209.47 154.35 205.94 157.94 201.89 160.85 C 197.05 164.76 190.74 165.75 185.03 167.83 C 185.84 164.43 189.10 162.52 190.44 159.40 C 192.95 153.66 193.09 147.28 192.98 141.13 C 192.68 141.53 192.07 142.35 191.77 142.76 C 189.99 140.66 188.07 138.70 186.03 136.86 C 185.74 136.40 185.17 135.47 184.89 135.01 C 184.67 134.66 184.24 133.94 184.03 133.58 C 183.70 133.17 183.05 132.34 182.73 131.92 C 178.72 126.71 174.37 121.75 170.80 116.22 C 168.92 113.42 167.51 110.08 164.39 108.40 C 164.77 115.32 166.29 122.12 168.21 128.76 C 170.47 127.50 172.73 126.24 175.06 125.11 C 173.83 128.40 169.82 129.67 168.94 133.04 C 169.09 133.64 169.39 134.84 169.54 135.44 L 170.12 135.55 C 170.69 135.74 171.83 136.14 172.40 136.33 L 173.24 136.60 C 172.18 137.53 171.11 138.45 170.03 139.36 C 171.36 139.45 172.70 139.55 174.02 139.72 C 173.86 140.73 173.73 141.75 173.63 142.78 C 173.72 143.47 173.89 144.86 173.98 145.56 C 173.55 145.54 172.70 145.52 172.27 145.51 C 171.43 144.81 170.59 144.10 169.78 143.37 C 169.89 144.69 170.21 145.97 170.63 147.22 C 169.07 147.19 167.51 147.16 165.96 147.09 C 159.00 146.03 152.90 142.38 146.76 139.19 C 149.62 144.19 152.49 149.34 156.73 153.32 C 158.66 155.22 161.55 154.95 164.03 155.36 C 164.00 156.49 163.45 157.17 162.37 157.41 C 157.55 158.84 152.59 156.81 148.27 154.75 C 134.12 147.90 123.74 135.12 116.75 121.32 C 113.42 114.86 111.56 107.82 108.94 101.09 C 105.28 105.53 102.40 110.53 99.45 115.45 C 96.20 121.07 92.98 126.79 90.91 132.98 C 89.04 138.33 88.36 143.98 87.43 149.55 C 86.87 152.51 87.98 155.39 88.51 158.27 C 89.51 163.05 88.51 167.97 89.33 172.77 C 90.67 178.51 94.77 183.18 99.53 186.47 C 110.10 193.92 123.00 197.27 135.76 198.29 C 135.85 198.72 136.04 199.58 136.14 200.02 C 135.62 200.02 134.58 200.02 134.06 200.02 C 136.04 206.18 140.77 210.71 145.27 215.11 C 143.70 214.86 142.14 214.66 140.57 214.45 C 138.00 211.26 135.71 207.84 133.87 204.18 C 132.88 202.57 132.05 200.25 129.81 200.24 C 123.55 199.49 117.71 197.05 111.78 195.07 C 106.07 193.01 100.79 189.97 95.81 186.55 C 92.38 189.79 91.89 195.13 93.66 199.34 C 95.07 202.71 96.56 206.23 99.33 208.72 C 102.96 212.05 106.76 215.25 111.07 217.68 C 110.52 217.97 109.42 218.53 108.86 218.82 C 108.52 219.00 107.84 219.37 107.50 219.55 C 107.38 220.15 107.14 221.36 107.02 221.97 L 106.85 222.74 C 106.19 223.68 105.50 224.62 104.80 225.54 L 104.23 224.75 C 104.60 222.14 105.20 219.57 105.84 217.02 C 103.62 214.94 101.22 213.06 98.89 211.11 C 95.79 208.64 94.48 204.74 91.94 201.80 C 90.65 206.02 93.99 209.55 96.17 212.76 C 99.28 216.82 101.10 221.82 100.98 226.96 C 100.63 226.81 99.93 226.49 99.58 226.34 C 98.26 220.74 96.39 215.00 92.20 210.84 C 88.99 213.56 85.69 216.42 81.52 217.49 C 77.25 219.03 72.67 218.72 68.25 218.21 C 67.16 222.80 65.74 227.52 66.49 232.28 C 67.36 237.62 68.93 243.17 72.88 247.09 C 76.42 251.01 81.91 252.35 87.01 252.43 C 90.78 252.66 94.01 250.11 97.79 250.21 C 98.23 248.77 98.68 247.33 99.07 245.88 C 98.93 250.02 98.05 254.10 98.03 258.24 C 97.97 260.13 98.04 262.03 98.00 263.93 C 97.73 264.25 97.19 264.89 96.92 265.21 C 96.48 265.10 95.60 264.87 95.16 264.76 C 95.48 260.82 96.26 256.95 97.08 253.10 C 92.39 254.16 87.56 255.42 82.75 254.27 C 76.77 253.61 71.24 249.97 68.35 244.69 C 64.97 239.71 64.40 233.48 64.52 227.63 C 64.54 223.49 66.69 219.51 65.79 215.37 C 64.99 211.74 66.06 207.94 64.71 204.38 C 63.68 201.30 64.37 196.08 68.40 195.88 C 68.04 198.09 66.87 200.02 66.08 202.09 C 66.47 205.55 68.99 208.79 72.42 209.71 C 75.46 210.88 78.37 208.85 81.21 208.01 C 82.23 207.65 83.26 207.33 84.28 206.99 C 86.04 205.75 87.76 203.65 86.70 201.39 C 86.07 198.63 83.61 197.17 81.11 196.36 C 80.80 196.21 80.16 195.90 79.85 195.75 C 82.88 192.28 87.08 187.38 83.99 182.66 C 80.35 183.79 78.16 186.92 75.62 189.50 C 75.33 189.48 74.77 189.45 74.49 189.43 C 71.98 186.28 70.43 181.58 65.95 180.80 C 65.11 185.92 67.87 190.45 69.77 194.98 C 69.46 195.06 68.84 195.23 68.54 195.31 C 64.76 191.50 63.59 185.51 64.27 180.30 C 65.21 178.38 67.70 178.91 69.17 179.84 C 71.97 181.42 73.40 184.45 75.16 187.00 C 77.23 184.82 79.05 181.93 82.21 181.30 C 83.81 180.85 85.32 181.69 86.78 182.21 C 86.80 184.67 87.20 187.21 86.53 189.62 C 85.82 191.21 84.81 192.63 83.89 194.10 C 86.15 196.80 88.06 199.78 89.65 202.92 C 91.09 199.46 91.11 195.71 91.19 192.03 C 91.20 189.23 93.22 186.97 93.61 184.26 C 91.99 181.89 90.35 179.52 88.61 177.23 C 84.57 176.20 80.24 179.62 76.14 177.99 C 77.82 174.76 80.88 172.35 81.91 168.79 C 82.57 167.35 81.98 165.86 81.03 164.73 C 77.82 160.42 75.11 155.70 73.44 150.57 C 71.50 144.24 69.36 137.75 69.94 131.02 C 70.42 131.03 71.37 131.05 71.85 131.06 C 71.99 141.21 74.87 151.23 80.04 159.96 C 81.52 162.35 83.73 164.16 85.80 166.02 C 84.04 169.96 81.64 173.55 79.15 177.06 C 81.98 176.43 84.80 175.69 87.58 174.87 C 86.76 170.74 87.53 166.60 87.70 162.46 C 86.76 161.06 85.46 159.95 84.44 158.61 C 83.84 155.62 83.65 152.56 83.44 149.53 C 83.30 148.70 83.68 147.97 84.11 147.31 C 86.37 144.08 86.34 139.97 87.21 136.26 C 88.30 129.15 90.81 122.39 92.45 115.41 C 93.19 112.69 93.64 109.59 96.09 107.81 C 95.93 112.74 93.67 117.24 92.95 122.07 C 95.64 118.55 97.31 114.42 99.68 110.70 C 102.06 106.46 105.40 102.87 107.91 98.73 C 108.65 94.50 107.05 90.27 106.97 86.03 M 160.97 143.30 C 162.49 144.55 164.60 145.48 166.54 144.64 C 168.24 143.26 168.81 141.08 169.02 139.00 C 166.11 139.97 163.53 141.66 160.97 143.30 M 79.57 211.40 C 75.64 212.74 71.49 211.53 67.74 210.19 C 67.90 212.15 66.95 214.90 69.22 215.96 C 74.72 216.85 80.71 216.49 85.61 213.62 C 86.83 212.87 88.10 211.99 88.74 210.66 C 88.91 209.20 88.91 207.74 88.95 206.29 C 85.97 208.25 82.90 210.11 79.57 211.40 Z" />
  <path fill="#ffffff" opacity="1.00"
    d=" M 223.27 79.92 C 227.12 88.08 229.81 96.82 231.39 105.69 C 231.85 109.03 232.74 112.61 231.16 115.79 C 230.16 110.91 227.42 106.61 226.22 101.77 C 223.67 94.77 224.27 87.20 223.27 79.92 Z" />
  <path fill="#ffffff" opacity="1.00"
    d=" M 99.45 115.45 C 102.40 110.53 105.28 105.53 108.94 101.09 C 111.56 107.82 113.42 114.86 116.75 121.32 C 123.74 135.12 134.12 147.90 148.27 154.75 C 152.59 156.81 157.55 158.84 162.37 157.41 C 163.45 157.17 164.00 156.49 164.03 155.36 C 161.55 154.95 158.66 155.22 156.73 153.32 C 152.49 149.34 149.62 144.19 146.76 139.19 C 152.90 142.38 159.00 146.03 165.96 147.09 C 164.16 153.74 166.07 161.20 170.66 166.30 C 172.73 168.83 177.16 168.78 179.04 166.04 C 182.37 161.81 182.29 156.04 181.57 150.97 C 180.94 146.38 178.57 141.52 174.02 139.72 C 172.70 139.55 171.36 139.45 170.03 139.36 C 171.11 138.45 172.18 137.53 173.24 136.60 C 177.50 136.40 181.82 135.77 186.03 136.86 C 188.07 138.70 189.99 140.66 191.77 142.76 C 192.07 142.35 192.68 141.53 192.98 141.13 C 193.09 147.28 192.95 153.66 190.44 159.40 C 189.10 162.52 185.84 164.43 185.03 167.83 C 190.74 165.75 197.05 164.76 201.89 160.85 C 205.94 157.94 209.47 154.35 212.14 150.13 C 213.51 147.46 217.52 147.42 219.20 149.79 C 222.23 153.72 223.65 159.12 222.14 163.95 C 220.34 170.63 212.99 175.19 206.22 173.95 C 204.29 173.42 202.68 171.10 200.59 171.70 C 197.53 173.98 195.57 177.41 192.94 180.14 C 186.14 185.27 178.89 189.91 170.89 192.93 C 167.51 194.32 163.59 195.14 161.24 198.20 C 156.36 204.03 151.58 209.96 146.18 215.33 L 145.27 215.11 C 140.77 210.71 136.04 206.18 134.06 200.02 C 134.58 200.02 135.62 200.02 136.14 200.02 C 140.81 200.24 146.12 202.08 150.30 199.10 C 145.46 198.79 140.59 198.89 135.76 198.29 C 123.00 197.27 110.10 193.92 99.53 186.47 C 94.77 183.18 90.67 178.51 89.33 172.77 C 88.51 167.97 89.51 163.05 88.51 158.27 C 87.98 155.39 86.87 152.51 87.43 149.55 C 88.36 143.98 89.04 138.33 90.91 132.98 C 92.98 126.79 96.20 121.07 99.45 115.45 M 101.07 129.12 C 101.40 130.92 103.22 131.58 104.64 132.37 C 108.56 134.29 112.49 136.51 116.92 137.01 C 116.80 136.64 116.57 135.90 116.46 135.53 C 111.22 133.66 106.50 130.48 101.07 129.12 M 91.30 140.29 C 89.88 141.40 90.31 143.33 90.08 144.89 C 91.79 143.99 93.41 142.83 95.28 142.26 C 99.99 141.48 105.14 141.95 109.16 144.74 C 107.09 144.63 104.63 144.43 103.11 146.14 C 100.51 148.13 100.64 151.77 101.38 154.63 C 102.18 157.43 103.15 160.18 104.12 162.93 C 105.21 166.15 107.76 168.60 110.33 170.71 C 111.41 171.71 113.02 172.11 114.41 171.54 C 116.65 168.83 118.97 165.68 118.87 161.99 C 118.99 157.73 117.11 153.81 115.48 149.99 C 116.17 150.23 117.56 150.72 118.26 150.96 C 117.31 147.64 114.32 145.70 111.85 143.56 C 113.23 143.97 114.62 144.37 116.02 144.73 C 115.47 143.74 115.04 142.60 114.00 142.03 C 110.48 139.63 106.40 137.78 102.06 137.91 C 98.42 137.96 94.09 137.44 91.30 140.29 M 205.63 160.68 C 204.50 161.68 205.05 163.39 205.65 164.51 C 206.50 163.59 207.34 162.66 208.17 161.72 C 209.07 162.50 209.97 163.29 210.88 164.08 C 210.55 165.43 210.24 166.80 209.95 168.17 C 211.87 168.32 212.70 166.57 212.95 164.95 C 212.31 162.88 211.10 161.07 210.06 159.19 C 212.23 159.08 214.40 159.02 216.58 158.99 C 216.46 159.98 216.35 160.97 216.25 161.97 C 217.16 161.60 218.07 161.24 218.99 160.88 C 218.99 160.20 219.01 158.85 219.01 158.17 C 214.79 155.64 208.73 156.87 205.63 160.68 M 177.92 172.07 C 177.97 173.64 178.02 175.21 178.08 176.78 C 178.55 176.78 179.49 176.77 179.95 176.77 C 179.98 175.59 180.02 174.43 180.05 173.26 C 179.52 172.96 178.46 172.37 177.92 172.07 M 173.00 173.00 C 172.98 175.20 173.25 177.48 174.89 179.10 C 175.43 178.76 176.52 178.08 177.07 177.75 C 176.64 175.51 174.75 174.20 173.00 173.00 M 103.91 181.06 C 107.01 180.97 106.71 177.05 107.08 174.84 C 103.72 174.68 103.99 178.74 103.91 181.06 M 109.10 175.19 C 109.02 177.11 108.95 179.03 108.91 180.96 C 109.44 180.94 110.49 180.92 111.02 180.91 C 111.00 179.00 110.96 177.11 110.90 175.21 C 110.45 175.21 109.55 175.20 109.10 175.19 M 137.98 181.89 C 135.46 183.27 134.16 187.27 136.65 189.31 C 139.32 192.93 144.19 194.25 148.39 192.69 C 148.80 192.51 149.61 192.16 150.02 191.98 L 149.70 192.73 C 150.90 192.38 152.42 192.42 153.26 191.31 C 156.39 187.32 157.06 181.03 153.79 176.95 C 148.05 175.74 142.68 179.02 137.98 181.89 Z" />
  <path fill="#ffffff" opacity="1.00"
    d=" M 164.39 108.40 C 167.51 110.08 168.92 113.42 170.80 116.22 C 174.37 121.75 178.72 126.71 182.73 131.92 C 178.09 131.35 173.44 131.87 168.94 133.04 C 169.82 129.67 173.83 128.40 175.06 125.11 C 172.73 126.24 170.47 127.50 168.21 128.76 C 166.29 122.12 164.77 115.32 164.39 108.40 Z" />
  <path fill="#ffffff" opacity="1.00"
    d=" M 49.31 134.89 C 52.38 132.82 55.02 130.13 56.81 126.87 C 55.69 129.89 54.38 132.83 53.07 135.77 C 51.82 135.45 50.56 135.16 49.31 134.89 Z" />
  <path fill="#41395b" opacity="1.00"
    d=" M 101.07 129.12 C 106.50 130.48 111.22 133.66 116.46 135.53 C 116.57 135.90 116.80 136.64 116.92 137.01 C 112.49 136.51 108.56 134.29 104.64 132.37 C 103.22 131.58 101.40 130.92 101.07 129.12 Z" />
  <path fill="#514e6f" opacity="1.00"
    d=" M 168.94 133.04 C 173.44 131.87 178.09 131.35 182.73 131.92 C 183.05 132.34 183.70 133.17 184.03 133.58 L 183.37 134.08 L 183.36 134.93 L 184.12 135.34 L 184.89 135.01 C 185.17 135.47 185.74 136.40 186.03 136.86 C 181.82 135.77 177.50 136.40 173.24 136.60 L 172.40 136.33 C 173.41 135.81 175.34 135.47 175.40 134.09 C 173.53 133.35 171.75 134.81 170.12 135.55 L 169.54 135.44 C 169.39 134.84 169.09 133.64 168.94 133.04 Z" />
  <path fill="#ffffff" opacity="1.00"
    d=" M 170.12 135.55 C 171.75 134.81 173.53 133.35 175.40 134.09 C 175.34 135.47 173.41 135.81 172.40 136.33 C 171.83 136.14 170.69 135.74 170.12 135.55 Z" />
  <path fill="#9e9ec4" opacity="1.00"
    d=" M 183.37 134.08 L 184.03 133.58 C 184.24 133.94 184.67 134.66 184.89 135.01 L 184.12 135.34 L 183.36 134.93 L 183.37 134.08 Z" />
  <path fill="#514e6f" opacity="1.00"
    d=" M 91.30 140.29 C 94.09 137.44 98.42 137.96 102.06 137.91 C 106.40 137.78 110.48 139.63 114.00 142.03 C 115.04 142.60 115.47 143.74 116.02 144.73 C 114.62 144.37 113.23 143.97 111.85 143.56 C 114.32 145.70 117.31 147.64 118.26 150.96 C 117.56 150.72 116.17 150.23 115.48 149.99 C 115.36 149.73 115.12 149.22 115.00 148.97 C 114.57 147.48 113.36 146.46 111.89 146.09 C 110.97 145.65 110.06 145.20 109.16 144.74 C 105.14 141.95 99.99 141.48 95.28 142.26 C 93.41 142.83 91.79 143.99 90.08 144.89 C 90.31 143.33 89.88 141.40 91.30 140.29 M 98.44 139.27 C 98.33 140.69 100.82 140.63 101.53 139.79 C 101.64 138.37 99.15 138.43 98.44 139.27 M 104.26 140.09 L 104.26 140.91 L 104.98 141.32 L 105.70 140.90 L 105.70 140.08 L 104.98 139.67 L 104.26 140.09 M 107.32 141.11 L 107.32 141.93 L 108.03 142.34 L 108.75 141.94 L 108.76 141.12 L 108.04 140.70 L 107.32 141.11 M 110.29 142.29 L 110.29 142.74 L 110.74 142.74 L 110.74 142.29 L 110.29 142.29 Z" />
  <path fill="#6e6ba1" opacity="1.00"
    d=" M 98.44 139.27 C 99.15 138.43 101.64 138.37 101.53 139.79 C 100.82 140.63 98.33 140.69 98.44 139.27 Z" />
  <path fill="#645677" opacity="1.00"
    d=" M 160.97 143.30 C 163.53 141.66 166.11 139.97 169.02 139.00 C 168.81 141.08 168.24 143.26 166.54 144.64 C 164.60 145.48 162.49 144.55 160.97 143.30 Z" />
  <path fill="#9e9ec4" opacity="1.00"
    d=" M 104.26 140.09 L 104.98 139.67 L 105.70 140.08 L 105.70 140.90 L 104.98 141.32 L 104.26 140.91 L 104.26 140.09 Z" />
  <path fill="#514e6f" opacity="1.00"
    d=" M 174.02 139.72 C 178.57 141.52 180.94 146.38 181.57 150.97 C 180.59 153.51 179.70 156.10 179.51 158.83 C 178.73 159.99 177.93 161.14 177.09 162.26 C 176.75 161.74 176.06 160.68 175.72 160.15 C 176.03 159.68 176.67 158.73 176.99 158.25 C 177.99 154.96 177.96 151.47 177.70 148.07 C 177.63 147.44 177.48 146.18 177.40 145.55 C 176.55 144.13 175.12 143.36 173.63 142.78 C 173.73 141.75 173.86 140.73 174.02 139.72 Z" />
  <path fill="#9e9ec4" opacity="1.00"
    d=" M 107.32 141.11 L 108.04 140.70 L 108.76 141.12 L 108.75 141.94 L 108.03 142.34 L 107.32 141.93 L 107.32 141.11 Z" />
  <path fill="#d4cedf" opacity="1.00"
    d=" M 110.29 142.29 L 110.74 142.29 L 110.74 142.74 L 110.29 142.74 L 110.29 142.29 Z" />
  <path fill="#645677" opacity="1.00"
    d=" M 169.78 143.37 C 170.59 144.10 171.43 144.81 172.27 145.51 C 172.70 145.52 173.55 145.54 173.98 145.56 C 175.12 145.55 176.26 145.55 177.40 145.55 C 177.48 146.18 177.63 147.44 177.70 148.07 C 177.30 147.99 176.49 147.82 176.08 147.73 C 173.96 147.28 172.92 149.01 172.68 150.84 C 172.21 151.18 171.27 151.85 170.81 152.18 C 170.67 151.07 170.51 149.96 170.33 148.86 C 169.95 152.84 169.24 157.40 172.07 160.70 C 173.28 160.50 174.50 160.32 175.72 160.15 C 176.06 160.68 176.75 161.74 177.09 162.26 C 175.55 163.57 173.67 164.35 171.85 165.16 C 173.38 165.49 174.97 166.42 176.55 165.75 C 178.56 164.01 179.57 161.46 179.51 158.83 C 179.70 156.10 180.59 153.51 181.57 150.97 C 182.29 156.04 182.37 161.81 179.04 166.04 C 177.16 168.78 172.73 168.83 170.66 166.30 C 166.07 161.20 164.16 153.74 165.96 147.09 C 167.51 147.16 169.07 147.19 170.63 147.22 C 170.21 145.97 169.89 144.69 169.78 143.37 Z" />
  <path fill="#ffffff" opacity="1.00"
    d=" M 173.63 142.78 C 175.12 143.36 176.55 144.13 177.40 145.55 C 176.26 145.55 175.12 145.55 173.98 145.56 C 173.89 144.86 173.72 143.47 173.63 142.78 Z" />
  <path fill="#615573" opacity="1.00"
    d=" M 103.11 146.14 C 104.63 144.43 107.09 144.63 109.16 144.74 C 110.06 145.20 110.97 145.65 111.89 146.09 C 111.53 147.87 113.25 149.48 115.00 148.97 C 115.12 149.22 115.36 149.73 115.48 149.99 C 117.11 153.81 118.99 157.73 118.87 161.99 C 118.97 165.68 116.65 168.83 114.41 171.54 C 113.02 172.11 111.41 171.71 110.33 170.71 C 107.76 168.60 105.21 166.15 104.12 162.93 C 103.15 160.18 102.18 157.43 101.38 154.63 C 100.64 151.77 100.51 148.13 103.11 146.14 M 104.33 147.21 C 103.07 148.47 105.49 149.44 106.25 148.32 C 107.51 147.06 105.08 146.06 104.33 147.21 M 108.92 147.30 C 110.26 149.42 111.98 151.29 114.02 152.75 C 112.72 150.59 110.94 148.78 108.92 147.30 M 107.09 158.33 C 107.11 156.17 106.99 154.01 106.74 151.86 C 104.89 153.68 104.50 156.95 107.09 158.33 M 108.10 152.02 C 107.84 154.36 107.47 157.08 109.34 158.90 C 111.17 159.54 113.12 158.62 114.97 158.43 C 114.98 157.02 114.99 155.61 114.99 154.20 C 114.46 154.68 113.92 155.16 113.39 155.64 C 112.29 153.58 110.84 151.19 108.10 152.02 M 114.28 160.24 C 114.18 162.84 113.72 165.40 113.17 167.95 C 114.91 165.79 114.68 162.89 115.04 160.30 L 114.28 160.24 M 111.17 162.10 L 111.16 162.92 L 111.87 163.34 L 112.59 162.93 L 112.60 162.11 L 111.89 161.69 L 111.17 162.10 M 108.44 164.33 C 108.09 165.75 110.53 166.77 111.52 165.83 C 111.90 164.37 109.44 163.53 108.44 164.33 Z" />
  <path fill="#6e6ba1" opacity="1.00"
    d=" M 111.89 146.09 C 113.36 146.46 114.57 147.48 115.00 148.97 C 113.25 149.48 111.53 147.87 111.89 146.09 Z" />
  <path fill="#ffffff" opacity="1.00"
    d=" M 104.33 147.21 C 105.08 146.06 107.51 147.06 106.25 148.32 C 105.49 149.44 103.07 148.47 104.33 147.21 Z" />
  <path fill="#ffffff" opacity="1.00"
    d=" M 108.92 147.30 C 110.94 148.78 112.72 150.59 114.02 152.75 C 111.98 151.29 110.26 149.42 108.92 147.30 Z" />
  <path fill="#ffffff" opacity="1.00"
    d=" M 172.68 150.84 C 172.92 149.01 173.96 147.28 176.08 147.73 C 176.86 150.05 177.15 152.49 177.09 154.93 C 175.78 154.91 174.47 154.90 173.16 154.90 C 172.98 153.54 172.82 152.19 172.68 150.84 Z" />
  <path fill="#928390" opacity="1.00"
    d=" M 176.08 147.73 C 176.49 147.82 177.30 147.99 177.70 148.07 C 177.96 151.47 177.99 154.96 176.99 158.25 C 175.36 158.20 173.74 158.14 172.11 158.09 C 171.32 156.21 170.89 154.22 170.81 152.18 C 171.27 151.85 172.21 151.18 172.68 150.84 C 172.82 152.19 172.98 153.54 173.16 154.90 C 174.47 154.90 175.78 154.91 177.09 154.93 C 177.15 152.49 176.86 150.05 176.08 147.73 Z" />
  <path fill="#ffffff" opacity="1.00"
    d=" M 170.33 148.86 C 170.51 149.96 170.67 151.07 170.81 152.18 C 170.89 154.22 171.32 156.21 172.11 158.09 C 173.74 158.14 175.36 158.20 176.99 158.25 C 176.67 158.73 176.03 159.68 175.72 160.15 C 174.50 160.32 173.28 160.50 172.07 160.70 C 169.24 157.40 169.95 152.84 170.33 148.86 Z" />
  <path fill="#928390" opacity="1.00"
    d=" M 220.93 148.94 C 222.41 149.12 223.12 149.97 223.06 151.48 C 221.75 151.12 221.04 150.27 220.93 148.94 Z" />
  <path fill="#ffffff" opacity="1.00"
    d=" M 107.09 158.33 C 104.50 156.95 104.89 153.68 106.74 151.86 C 106.99 154.01 107.11 156.17 107.09 158.33 Z" />
  <path fill="#ffffff" opacity="1.00"
    d=" M 108.10 152.02 C 110.84 151.19 112.29 153.58 113.39 155.64 C 113.92 155.16 114.46 154.68 114.99 154.20 C 114.99 155.61 114.98 157.02 114.97 158.43 C 113.12 158.62 111.17 159.54 109.34 158.90 C 107.47 157.08 107.84 154.36 108.10 152.02 Z" />
  <path fill="#d4cedf" opacity="1.00"
    d=" M 223.61 151.91 C 223.74 152.00 224.00 152.19 224.12 152.28 C 224.00 152.19 223.74 152.00 223.61 151.91 Z" />
  <path fill="#a15878" opacity="1.00"
    d=" M 205.63 160.68 C 208.73 156.87 214.79 155.64 219.01 158.17 C 219.01 158.85 218.99 160.20 218.99 160.88 C 218.07 161.24 217.16 161.60 216.25 161.97 C 216.35 160.97 216.46 159.98 216.58 158.99 C 214.40 159.02 212.23 159.08 210.06 159.19 C 211.10 161.07 212.31 162.88 212.95 164.95 C 212.70 166.57 211.87 168.32 209.95 168.17 C 210.24 166.80 210.55 165.43 210.88 164.08 C 209.97 163.29 209.07 162.50 208.17 161.72 C 207.34 162.66 206.50 163.59 205.65 164.51 C 205.05 163.39 204.50 161.68 205.63 160.68 Z" />
  <path fill="#ffffff" opacity="1.00"
    d=" M 179.51 158.83 C 179.57 161.46 178.56 164.01 176.55 165.75 C 174.97 166.42 173.38 165.49 171.85 165.16 C 173.67 164.35 175.55 163.57 177.09 162.26 C 177.93 161.14 178.73 159.99 179.51 158.83 Z" />
  <path fill="#ffffff" opacity="1.00"
    d=" M 114.28 160.24 L 115.04 160.30 C 114.68 162.89 114.91 165.79 113.17 167.95 C 113.72 165.40 114.18 162.84 114.28 160.24 Z" />
  <path fill="#9e9ec4" opacity="1.00"
    d=" M 111.17 162.10 L 111.89 161.69 L 112.60 162.11 L 112.59 162.93 L 111.87 163.34 L 111.16 162.92 L 111.17 162.10 Z" />
  <path fill="#ffffff" opacity="1.00"
    d=" M 108.44 164.33 C 109.44 163.53 111.90 164.37 111.52 165.83 C 110.53 166.77 108.09 165.75 108.44 164.33 Z" />
  <path fill="#bc7b96" opacity="1.00"
    d=" M 177.92 172.07 C 178.46 172.37 179.52 172.96 180.05 173.26 C 180.02 174.43 179.98 175.59 179.95 176.77 C 179.49 176.77 178.55 176.78 178.08 176.78 C 178.02 175.21 177.97 173.64 177.92 172.07 Z" />
  <path fill="#bc7b96" opacity="1.00"
    d=" M 173.00 173.00 C 174.75 174.20 176.64 175.51 177.07 177.75 C 176.52 178.08 175.43 178.76 174.89 179.10 C 173.25 177.48 172.98 175.20 173.00 173.00 Z" />
  <path fill="#bc7b96" opacity="1.00"
    d=" M 103.91 181.06 C 103.99 178.74 103.72 174.68 107.08 174.84 C 106.71 177.05 107.01 180.97 103.91 181.06 Z" />
  <path fill="#928390" opacity="1.00"
    d=" M 109.10 175.19 C 109.55 175.20 110.45 175.21 110.90 175.21 C 110.96 177.11 111.00 179.00 111.02 180.91 C 110.49 180.92 109.44 180.94 108.91 180.96 C 108.95 179.03 109.02 177.11 109.10 175.19 Z" />
  <path fill="#645677" opacity="1.00"
    d=" M 200.32 175.15 C 202.86 178.60 205.07 182.28 207.07 186.07 C 205.47 186.08 203.87 186.16 202.29 185.95 C 200.85 184.91 199.74 183.51 198.57 182.20 C 196.96 182.20 195.34 182.22 193.73 182.23 C 193.60 181.90 193.34 181.24 193.22 180.90 C 196.11 179.72 198.23 177.39 200.32 175.15 Z" />
  <path fill="#a15878" opacity="1.00"
    d=" M 137.98 181.89 C 142.68 179.02 148.05 175.74 153.79 176.95 C 157.06 181.03 156.39 187.32 153.26 191.31 C 152.42 192.42 150.90 192.38 149.70 192.73 L 150.02 191.98 C 151.59 189.76 153.67 187.64 153.97 184.80 C 154.38 182.41 153.48 180.10 152.84 177.84 C 148.56 178.85 144.39 180.40 140.59 182.61 C 139.67 183.36 138.07 183.83 138.00 185.21 C 137.43 187.39 139.11 189.22 140.76 190.37 C 142.99 192.07 146.28 190.72 148.39 192.69 C 144.19 194.25 139.32 192.93 136.65 189.31 C 134.16 187.27 135.46 183.27 137.98 181.89 Z" />
  <path fill="#f4a9ba" opacity="1.00"
    d=" M 140.59 182.61 C 144.39 180.40 148.56 178.85 152.84 177.84 C 153.48 180.10 154.38 182.41 153.97 184.80 C 153.67 187.64 151.59 189.76 150.02 191.98 C 149.61 192.16 148.80 192.51 148.39 192.69 C 146.28 190.72 142.99 192.07 140.76 190.37 C 139.11 189.22 137.43 187.39 138.00 185.21 C 138.07 183.83 139.67 183.36 140.59 182.61 Z" />
  <path fill="#41395b" opacity="1.00"
    d=" M 170.89 192.93 C 178.89 189.91 186.14 185.27 192.94 180.14 L 193.22 180.90 C 193.34 181.24 193.60 181.90 193.73 182.23 C 193.88 182.62 194.18 183.39 194.33 183.77 C 190.54 184.73 187.11 186.64 183.87 188.78 C 177.66 192.74 170.62 195.07 163.86 197.82 C 159.23 203.81 154.57 209.82 149.19 215.17 C 147.09 217.19 145.28 219.48 143.76 221.97 C 144.87 223.58 145.71 225.51 147.40 226.63 C 151.77 227.50 156.27 227.03 160.70 227.06 C 160.17 224.08 158.93 220.70 160.81 217.92 C 162.95 214.78 167.05 213.44 170.70 213.29 C 173.74 214.84 176.20 217.78 176.63 221.23 C 177.26 222.93 176.75 225.60 178.94 226.20 C 178.76 226.69 178.39 227.68 178.21 228.18 C 177.96 228.33 177.45 228.65 177.20 228.80 L 176.37 228.83 C 173.88 228.66 171.55 229.62 169.24 230.41 C 168.75 236.15 168.81 241.93 169.05 247.68 C 169.88 247.84 171.55 248.14 172.38 248.29 C 171.92 250.16 169.85 250.09 168.36 250.60 C 168.22 257.77 167.83 264.99 168.68 272.14 L 168.79 273.00 C 168.78 276.57 171.11 280.10 169.78 283.60 C 168.28 286.42 164.85 286.06 162.16 286.05 C 161.28 284.66 160.44 283.25 159.72 281.78 C 160.21 280.88 160.67 279.96 161.08 279.03 C 161.69 277.68 162.28 276.33 162.76 274.95 C 163.72 275.83 164.76 276.63 165.84 277.37 C 166.59 263.27 165.16 249.07 167.01 235.02 C 167.47 230.61 168.00 226.15 169.70 222.01 C 168.16 221.98 166.63 221.95 165.10 221.91 C 163.15 225.97 163.09 230.54 162.97 234.95 C 162.92 240.31 163.04 245.68 162.99 251.05 C 162.55 250.95 161.66 250.77 161.22 250.67 C 154.93 249.49 148.47 250.31 142.17 249.16 C 141.86 248.61 141.24 247.50 140.94 246.95 C 147.62 247.15 154.22 248.93 160.93 248.17 C 161.09 241.83 161.15 235.49 160.91 229.15 C 156.37 229.05 151.75 229.67 147.27 228.78 C 144.09 227.50 141.11 223.91 142.25 220.32 C 143.20 218.40 144.73 216.87 146.18 215.33 C 151.58 209.96 156.36 204.03 161.24 198.20 C 163.59 195.14 167.51 194.32 170.89 192.93 M 164.95 216.99 C 163.17 218.01 161.99 219.73 161.78 221.78 C 164.67 219.90 169.07 218.74 171.84 221.35 C 172.59 223.81 171.22 225.98 169.82 227.87 C 171.11 227.47 172.42 227.09 173.72 226.73 C 174.21 225.00 175.21 223.21 174.59 221.38 C 174.15 219.42 172.87 217.83 171.73 216.24 C 169.48 216.19 166.88 215.43 164.95 216.99 M 165.51 280.18 L 165.33 280.31 C 164.78 280.53 163.68 280.97 163.14 281.18 C 163.12 281.90 163.09 283.33 163.07 284.05 C 164.59 283.69 166.94 284.37 167.67 282.52 C 168.58 281.31 167.64 280.29 166.88 279.36 C 166.54 279.56 165.86 279.98 165.51 280.18 Z" />
  <path fill="#ffffff" opacity="1.00"
    d=" M 65.95 180.80 C 70.43 181.58 71.98 186.28 74.49 189.43 C 74.77 189.45 75.33 189.48 75.62 189.50 C 78.16 186.92 80.35 183.79 83.99 182.66 C 87.08 187.38 82.88 192.28 79.85 195.75 C 79.05 196.75 78.26 197.77 77.68 198.92 C 79.54 201.68 81.47 204.49 81.21 208.01 C 78.37 208.85 75.46 210.88 72.42 209.71 C 68.99 208.79 66.47 205.55 66.08 202.09 C 66.87 200.02 68.04 198.09 68.40 195.88 L 68.54 195.31 C 68.84 195.23 69.46 195.06 69.77 194.98 C 67.87 190.45 65.11 185.92 65.95 180.80 M 69.78 197.10 C 71.72 199.17 74.73 199.15 77.30 199.74 C 77.16 199.15 76.87 197.97 76.72 197.38 C 74.46 196.99 71.88 195.48 69.78 197.10 Z" />
  <path fill="#f5efda" opacity="1.00"
    d=" M 183.87 188.78 C 187.11 186.64 190.54 184.73 194.33 183.77 C 195.73 183.98 197.14 184.18 198.55 184.38 C 200.42 188.30 201.86 192.41 203.54 196.42 C 205.23 196.82 206.92 197.22 208.62 197.61 C 210.34 203.45 206.17 208.62 203.41 213.36 C 202.21 215.68 199.52 216.24 197.30 217.15 C 199.04 218.97 200.77 220.85 201.95 223.09 C 210.05 239.15 214.94 256.55 219.00 274.00 C 215.75 274.96 212.41 275.64 209.03 275.86 C 203.60 276.23 198.26 277.23 192.90 278.05 C 192.27 274.65 191.57 271.27 190.99 267.87 C 189.80 260.65 190.52 253.31 190.26 246.03 C 190.27 238.77 189.42 231.48 190.04 224.24 C 190.55 221.64 193.66 221.95 195.62 221.41 C 195.69 220.80 195.82 219.58 195.89 218.97 C 194.45 219.14 193.00 219.22 191.61 219.62 C 189.49 220.82 187.79 222.71 185.46 223.57 C 183.29 224.44 181.10 225.28 178.94 226.20 C 176.75 225.60 177.26 222.93 176.63 221.23 C 176.20 217.78 173.74 214.84 170.70 213.29 C 167.05 213.44 162.95 214.78 160.81 217.92 C 158.93 220.70 160.17 224.08 160.70 227.06 C 156.27 227.03 151.77 227.50 147.40 226.63 C 145.71 225.51 144.87 223.58 143.76 221.97 C 145.28 219.48 147.09 217.19 149.19 215.17 C 154.57 209.82 159.23 203.81 163.86 197.82 C 170.62 195.07 177.66 192.74 183.87 188.78 Z" />
  <path fill="#f5efda" opacity="1.00"
    d=" M 93.66 199.34 C 91.89 195.13 92.38 189.79 95.81 186.55 C 100.79 189.97 106.07 193.01 111.78 195.07 C 117.71 197.05 123.55 199.49 129.81 200.24 C 132.05 200.25 132.88 202.57 133.87 204.18 C 135.71 207.84 138.00 211.26 140.57 214.45 C 142.14 214.66 143.70 214.86 145.27 215.11 L 146.18 215.33 C 144.73 216.87 143.20 218.40 142.25 220.32 C 141.11 223.91 144.09 227.50 147.27 228.78 C 151.75 229.67 156.37 229.05 160.91 229.15 C 161.15 235.49 161.09 241.83 160.93 248.17 C 154.22 248.93 147.62 247.15 140.94 246.95 C 140.52 246.93 139.68 246.88 139.26 246.86 C 134.96 246.22 130.54 246.41 126.34 245.16 C 127.12 238.90 126.20 232.50 127.62 226.33 C 131.88 228.92 136.94 226.23 140.70 223.92 C 137.61 222.77 134.50 224.27 131.51 225.03 C 132.18 222.13 133.66 218.86 131.96 216.04 C 130.56 213.23 126.59 212.17 123.97 213.90 C 121.45 215.45 120.19 218.26 118.69 220.70 C 117.54 220.50 116.38 220.30 115.24 220.05 C 113.81 219.31 112.44 218.50 111.07 217.68 C 106.76 215.25 102.96 212.05 99.33 208.72 C 96.56 206.23 95.07 202.71 93.66 199.34 Z" />
  <path fill="#a15878" opacity="1.00"
    d=" M 69.78 197.10 C 71.88 195.48 74.46 196.99 76.72 197.38 C 76.87 197.97 77.16 199.15 77.30 199.74 C 74.73 199.15 71.72 199.17 69.78 197.10 Z" />
  <path fill="#a15878" opacity="1.00"
    d=" M 77.68 198.92 C 78.26 197.77 79.05 196.75 79.85 195.75 C 80.16 195.90 80.80 196.21 81.11 196.36 C 80.33 200.25 82.93 203.55 84.28 206.99 C 83.26 207.33 82.23 207.65 81.21 208.01 C 81.47 204.49 79.54 201.68 77.68 198.92 Z" />
  <path fill="#ffffff" opacity="1.00"
    d=" M 81.11 196.36 C 83.61 197.17 86.07 198.63 86.70 201.39 C 87.76 203.65 86.04 205.75 84.28 206.99 C 82.93 203.55 80.33 200.25 81.11 196.36 Z" />
  <path fill="#a15878" opacity="1.00"
    d=" M 135.76 198.29 C 140.59 198.89 145.46 198.79 150.30 199.10 C 146.12 202.08 140.81 200.24 136.14 200.02 C 136.04 199.58 135.85 198.72 135.76 198.29 Z" />
  <path fill="#f5efda" opacity="1.00"
    d=" M 91.94 201.80 C 94.48 204.74 95.79 208.64 98.89 211.11 C 101.22 213.06 103.62 214.94 105.84 217.02 C 105.20 219.57 104.60 222.14 104.23 224.75 C 101.71 231.57 99.98 238.67 99.07 245.88 C 98.68 247.33 98.23 248.77 97.79 250.21 C 94.01 250.11 90.78 252.66 87.01 252.43 C 81.91 252.35 76.42 251.01 72.88 247.09 C 68.93 243.17 67.36 237.62 66.49 232.28 C 65.74 227.52 67.16 222.80 68.25 218.21 C 72.67 218.72 77.25 219.03 81.52 217.49 C 85.69 216.42 88.99 213.56 92.20 210.84 C 96.39 215.00 98.26 220.74 99.58 226.34 C 99.93 226.49 100.63 226.81 100.98 226.96 C 101.10 221.82 99.28 216.82 96.17 212.76 C 93.99 209.55 90.65 206.02 91.94 201.80 Z" />
  <path fill="#f5efda" opacity="1.00"
    d=" M 79.57 211.40 C 82.90 210.11 85.97 208.25 88.95 206.29 C 88.91 207.74 88.91 209.20 88.74 210.66 C 88.10 211.99 86.83 212.87 85.61 213.62 C 80.71 216.49 74.72 216.85 69.22 215.96 C 66.95 214.90 67.90 212.15 67.74 210.19 C 71.49 211.53 75.64 212.74 79.57 211.40 Z" />
  <path fill="#312b67" opacity="1.00"
    d=" M 123.97 213.90 C 126.59 212.17 130.56 213.23 131.96 216.04 C 133.66 218.86 132.18 222.13 131.51 225.03 C 134.50 224.27 137.61 222.77 140.70 223.92 C 136.94 226.23 131.88 228.92 127.62 226.33 C 126.20 232.50 127.12 238.90 126.34 245.16 C 130.54 246.41 134.96 246.22 139.26 246.86 C 136.92 247.18 134.59 247.55 132.30 248.08 C 130.30 247.85 128.30 247.74 126.30 247.53 L 125.65 247.56 C 125.20 247.63 124.31 247.77 123.86 247.84 C 124.22 239.51 123.58 230.82 126.84 222.94 C 126.15 222.97 124.76 223.02 124.07 223.04 C 122.24 227.83 123.10 233.02 123.03 238.01 C 123.26 244.04 121.64 249.95 121.94 255.98 C 122.23 261.58 121.54 267.15 121.05 272.72 C 121.49 272.71 122.37 272.69 122.81 272.68 C 123.28 272.66 124.21 272.64 124.68 272.62 C 124.98 272.99 125.58 273.72 125.88 274.09 C 125.90 274.79 125.94 276.18 125.96 276.88 C 125.99 278.20 126.00 279.52 125.99 280.85 C 124.48 281.67 123.00 283.10 121.13 282.75 C 119.25 282.33 117.52 281.16 116.42 279.57 C 115.69 277.40 115.95 275.06 117.05 273.07 C 118.06 270.56 118.65 267.92 119.22 265.29 C 120.76 260.71 120.47 255.84 120.01 251.11 C 119.93 249.78 119.88 248.46 119.85 247.13 C 119.84 246.66 119.82 245.74 119.82 245.27 C 120.54 238.59 121.60 231.89 121.01 225.16 C 119.05 224.00 117.05 222.90 115.05 221.79 C 115.10 221.36 115.19 220.48 115.24 220.05 C 116.38 220.30 117.54 220.50 118.69 220.70 C 120.19 218.26 121.45 215.45 123.97 213.90 M 123.62 216.57 C 121.91 217.77 121.81 219.90 121.61 221.78 C 123.32 221.56 125.03 221.15 126.77 221.26 C 128.09 221.75 128.93 222.98 129.97 223.87 C 130.61 221.62 131.74 219.04 130.24 216.86 C 129.00 214.29 125.29 214.62 123.62 216.57 M 117.72 275.24 C 118.04 277.71 119.00 280.77 121.97 280.96 C 124.50 280.86 124.03 278.08 123.95 276.32 C 121.87 275.94 119.80 275.57 117.72 275.24 Z" />
  <path fill="#928390" opacity="1.00"
    d=" M 123.62 216.57 C 125.29 214.62 129.00 214.29 130.24 216.86 C 131.74 219.04 130.61 221.62 129.97 223.87 C 128.93 222.98 128.09 221.75 126.77 221.26 C 125.03 221.15 123.32 221.56 121.61 221.78 C 121.81 219.90 121.91 217.77 123.62 216.57 Z" />
  <path fill="#928390" opacity="1.00"
    d=" M 164.95 216.99 C 166.88 215.43 169.48 216.19 171.73 216.24 C 172.87 217.83 174.15 219.42 174.59 221.38 C 175.21 223.21 174.21 225.00 173.72 226.73 C 172.42 227.09 171.11 227.47 169.82 227.87 C 171.22 225.98 172.59 223.81 171.84 221.35 C 169.07 218.74 164.67 219.90 161.78 221.78 C 161.99 219.73 163.17 218.01 164.95 216.99 Z" />
  <path fill="#4c3837" opacity="1.00"
    d=" M 108.86 218.82 C 109.42 218.53 110.52 217.97 111.07 217.68 C 112.44 218.50 113.81 219.31 115.24 220.05 C 115.19 220.48 115.10 221.36 115.05 221.79 C 114.43 226.65 113.03 231.35 112.16 236.16 C 111.74 238.34 111.71 240.90 113.53 242.50 C 115.04 244.45 117.59 244.72 119.82 245.27 C 119.82 245.74 119.84 246.66 119.85 247.13 C 118.09 246.90 116.33 246.68 114.59 246.36 C 113.04 245.24 111.63 243.95 110.33 242.56 C 109.40 235.27 111.81 228.24 113.54 221.28 C 111.99 220.44 110.45 219.59 108.86 218.82 Z" />
  <path fill="#f5efda" opacity="1.00"
    d=" M 107.50 219.55 C 107.84 219.37 108.52 219.00 108.86 218.82 C 110.45 219.59 111.99 220.44 113.54 221.28 C 111.81 228.24 109.40 235.27 110.33 242.56 C 109.59 241.17 109.02 239.64 109.24 238.05 C 109.62 232.58 111.41 227.33 112.01 221.89 C 110.80 221.28 109.59 220.68 108.39 220.08 C 108.05 220.56 107.36 221.50 107.02 221.97 C 107.14 221.36 107.38 220.15 107.50 219.55 Z" />
  <path fill="#312b67" opacity="1.00"
    d=" M 191.61 219.62 C 193.00 219.22 194.45 219.14 195.89 218.97 C 195.82 219.58 195.69 220.80 195.62 221.41 C 193.66 221.95 190.55 221.64 190.04 224.24 C 189.42 231.48 190.27 238.77 190.26 246.03 C 190.52 253.31 189.80 260.65 190.99 267.87 C 189.96 268.20 188.93 268.53 187.90 268.85 L 187.80 268.05 C 188.08 253.76 187.91 239.45 188.03 225.16 C 184.77 226.21 181.46 227.10 178.21 228.18 C 178.39 227.68 178.76 226.69 178.94 226.20 C 181.10 225.28 183.29 224.44 185.46 223.57 C 187.79 222.71 189.49 220.82 191.61 219.62 Z" />
  <path fill="#f8c455" opacity="1.00"
    d=" M 108.39 220.08 C 109.59 220.68 110.80 221.28 112.01 221.89 C 111.41 227.33 109.62 232.58 109.24 238.05 C 109.02 239.64 109.59 241.17 110.33 242.56 C 111.63 243.95 113.04 245.24 114.59 246.36 C 116.30 247.58 117.97 248.89 119.42 250.44 L 119.07 251.57 C 118.36 253.62 117.95 255.77 117.94 257.95 C 117.84 263.00 117.53 268.04 117.05 273.07 C 113.33 275.50 109.93 271.86 106.53 270.62 C 103.34 268.83 98.78 268.80 96.92 265.21 C 97.19 264.89 97.73 264.25 98.00 263.93 C 99.89 260.82 99.93 257.08 100.67 253.62 C 101.49 249.78 102.07 245.90 102.08 241.97 C 102.21 241.61 102.45 240.89 102.57 240.53 C 105.51 235.10 106.08 228.77 106.85 222.74 L 107.02 221.97 C 107.36 221.50 108.05 220.56 108.39 220.08 Z" />
  <path fill="#f5efda" opacity="1.00"
    d=" M 115.05 221.79 C 117.05 222.90 119.05 224.00 121.01 225.16 C 121.60 231.89 120.54 238.59 119.82 245.27 C 117.59 244.72 115.04 244.45 113.53 242.50 C 111.71 240.90 111.74 238.34 112.16 236.16 C 113.03 231.35 114.43 226.65 115.05 221.79 Z" />
  <path fill="#f5efda" opacity="1.00"
    d=" M 165.10 221.91 C 166.63 221.95 168.16 221.98 169.70 222.01 C 168.00 226.15 167.47 230.61 167.01 235.02 C 165.16 249.07 166.59 263.27 165.84 277.37 C 164.76 276.63 163.72 275.83 162.76 274.95 C 163.26 266.99 162.90 259.01 162.99 251.05 C 163.04 245.68 162.92 240.31 162.97 234.95 C 163.09 230.54 163.15 225.97 165.10 221.91 Z" />
  <path fill="#edc47b" opacity="1.00"
    d=" M 104.80 225.54 C 105.50 224.62 106.19 223.68 106.85 222.74 C 106.08 228.77 105.51 235.10 102.57 240.53 C 102.87 235.46 104.91 230.63 104.80 225.54 Z" />
  <path fill="#ffffff" opacity="1.00"
    d=" M 124.07 223.04 C 124.76 223.02 126.15 222.97 126.84 222.94 C 123.58 230.82 124.22 239.51 123.86 247.84 C 123.87 256.13 123.09 264.39 122.81 272.68 C 122.37 272.69 121.49 272.71 121.05 272.72 C 121.54 267.15 122.23 261.58 121.94 255.98 C 121.64 249.95 123.26 244.04 123.03 238.01 C 123.10 233.02 122.24 227.83 124.07 223.04 Z" />
  <path fill="#4c3837" opacity="1.00"
    d=" M 104.23 224.75 L 104.80 225.54 C 104.91 230.63 102.87 235.46 102.57 240.53 C 102.45 240.89 102.21 241.61 102.08 241.97 C 99.89 247.18 100.07 252.98 98.03 258.24 C 98.05 254.10 98.93 250.02 99.07 245.88 C 99.98 238.67 101.71 231.57 104.23 224.75 Z" />
  <path fill="#f5efda" opacity="1.00"
    d=" M 178.21 228.18 C 181.46 227.10 184.77 226.21 188.03 225.16 C 187.91 239.45 188.08 253.76 187.80 268.05 C 186.78 262.76 187.52 257.35 187.36 252.00 C 187.17 243.64 187.72 235.27 187.05 226.93 C 184.02 227.16 181.10 228.05 178.40 229.45 C 176.66 235.75 175.71 242.29 173.28 248.39 C 172.39 250.75 168.96 251.33 168.77 254.04 C 168.38 260.06 168.74 266.10 168.68 272.14 C 167.83 264.99 168.22 257.77 168.36 250.60 C 169.85 250.09 171.92 250.16 172.38 248.29 C 171.55 248.14 169.88 247.84 169.05 247.68 C 168.81 241.93 168.75 236.15 169.24 230.41 C 171.55 229.62 173.88 228.66 176.37 228.83 C 173.12 234.47 172.77 241.18 171.18 247.38 C 172.28 247.09 173.01 246.41 173.35 245.36 C 175.18 239.99 176.60 234.45 177.20 228.80 C 177.45 228.65 177.96 228.33 178.21 228.18 Z" />
  <path fill="#f8c455" opacity="1.00"
    d=" M 178.40 229.45 C 181.10 228.05 184.02 227.16 187.05 226.93 C 187.72 235.27 187.17 243.64 187.36 252.00 C 187.52 257.35 186.78 262.76 187.80 268.05 L 187.90 268.85 C 188.93 268.53 189.96 268.20 190.99 267.87 C 191.57 271.27 192.27 274.65 192.90 278.05 C 186.01 278.52 179.12 280.30 172.21 279.04 C 170.12 277.75 169.56 275.15 168.79 273.00 L 168.68 272.14 C 168.74 266.10 168.38 260.06 168.77 254.04 C 168.96 251.33 172.39 250.75 173.28 248.39 C 175.71 242.29 176.66 235.75 178.40 229.45 Z" />
  <path fill="#4c3837" opacity="1.00"
    d=" M 176.37 228.83 L 177.20 228.80 C 176.60 234.45 175.18 239.99 173.35 245.36 C 173.01 246.41 172.28 247.09 171.18 247.38 C 172.77 241.18 173.12 234.47 176.37 228.83 Z" />
  <path fill="#edc47b" opacity="1.00"
    d=" M 98.03 258.24 C 100.07 252.98 99.89 247.18 102.08 241.97 C 102.07 245.90 101.49 249.78 100.67 253.62 C 99.93 257.08 99.89 260.82 98.00 263.93 C 98.04 262.03 97.97 260.13 98.03 258.24 Z" />
  <path fill="#edc47b" opacity="1.00"
    d=" M 114.59 246.36 C 116.33 246.68 118.09 246.90 119.85 247.13 C 119.88 248.46 119.93 249.78 120.01 251.11 L 119.42 250.44 C 117.97 248.89 116.30 247.58 114.59 246.36 Z" />
  <path fill="#41395b" opacity="1.00"
    d=" M 123.86 247.84 C 124.31 247.77 125.20 247.63 125.65 247.56 L 126.30 247.53 C 125.63 256.37 126.13 265.24 125.88 274.09 C 125.58 273.72 124.98 272.99 124.68 272.62 C 124.21 272.64 123.28 272.66 122.81 272.68 C 123.09 264.39 123.87 256.13 123.86 247.84 Z" />
  <path fill="#4c3837" opacity="1.00"
    d=" M 132.30 248.08 C 134.59 247.55 136.92 247.18 139.26 246.86 C 139.68 246.88 140.52 246.93 140.94 246.95 C 141.24 247.50 141.86 248.61 142.17 249.16 C 139.35 248.92 136.52 249.05 133.69 249.04 C 133.18 248.95 132.16 248.77 131.66 248.68 L 132.30 248.08 Z" />
  <path fill="#edc47b" opacity="1.00"
    d=" M 126.30 247.53 C 128.30 247.74 130.30 247.85 132.30 248.08 L 131.66 248.68 C 130.18 248.88 128.69 249.06 127.21 249.22 C 126.90 254.47 126.99 259.74 126.91 264.99 C 126.89 269.11 126.80 273.28 127.75 277.32 C 127.30 277.21 126.41 276.99 125.96 276.88 C 125.94 276.18 125.90 274.79 125.88 274.09 C 126.13 265.24 125.63 256.37 126.30 247.53 Z" />
  <path fill="#f8c455" opacity="1.00"
    d=" M 127.21 249.22 C 128.69 249.06 130.18 248.88 131.66 248.68 C 132.16 248.77 133.18 248.95 133.69 249.04 C 142.13 251.29 150.97 249.90 159.48 251.52 C 160.31 257.65 159.67 263.84 159.88 270.00 C 159.85 273.51 160.48 277.33 158.34 280.40 C 155.43 280.42 152.53 280.70 149.62 280.73 L 148.87 280.23 C 147.60 278.87 145.70 279.36 144.05 279.32 C 138.62 279.68 133.35 277.79 127.91 278.11 L 127.75 277.32 C 126.80 273.28 126.89 269.11 126.91 264.99 C 126.99 259.74 126.90 254.47 127.21 249.22 Z" />
  <path fill="#d9bd98" opacity="1.00"
    d=" M 133.69 249.04 C 136.52 249.05 139.35 248.92 142.17 249.16 C 148.47 250.31 154.93 249.49 161.22 250.67 C 160.55 260.11 161.17 269.58 161.08 279.03 C 160.67 279.96 160.21 280.88 159.72 281.78 C 159.31 281.82 158.49 281.90 158.09 281.94 C 158.15 281.55 158.27 280.79 158.34 280.40 C 160.48 277.33 159.85 273.51 159.88 270.00 C 159.67 263.84 160.31 257.65 159.48 251.52 C 150.97 249.90 142.13 251.29 133.69 249.04 Z" />
  <path fill="#4c3837" opacity="1.00"
    d=" M 119.42 250.44 L 120.01 251.11 C 120.47 255.84 120.76 260.71 119.22 265.29 C 119.05 260.72 118.79 256.14 119.07 251.57 L 119.42 250.44 Z" />
  <path fill="#4c3837" opacity="1.00"
    d=" M 161.22 250.67 C 161.66 250.77 162.55 250.95 162.99 251.05 C 162.90 259.01 163.26 266.99 162.76 274.95 C 162.28 276.33 161.69 277.68 161.08 279.03 C 161.17 269.58 160.55 260.11 161.22 250.67 Z" />
  <path fill="#d9bd98" opacity="1.00"
    d=" M 117.94 257.95 C 117.95 255.77 118.36 253.62 119.07 251.57 C 118.79 256.14 119.05 260.72 119.22 265.29 C 118.65 267.92 118.06 270.56 117.05 273.07 C 117.53 268.04 117.84 263.00 117.94 257.95 Z" />
  <path fill="#928390" opacity="1.00"
    d=" M 117.72 275.24 C 119.80 275.57 121.87 275.94 123.95 276.32 C 124.03 278.08 124.50 280.86 121.97 280.96 C 119.00 280.77 118.04 277.71 117.72 275.24 Z" />
  <path fill="#a89ca6" opacity="1.00"
    d=" M 130.66 279.23 C 132.59 278.95 134.53 279.14 136.38 279.76 C 140.45 281.04 144.73 279.55 148.87 280.23 L 149.62 280.73 C 145.48 281.61 141.23 281.20 137.05 280.86 C 134.86 280.64 132.53 280.55 130.66 279.23 Z" />
  <path fill="#928390" opacity="1.00"
    d=" M 165.51 280.18 C 165.86 279.98 166.54 279.56 166.88 279.36 C 167.64 280.29 168.58 281.31 167.67 282.52 C 166.94 284.37 164.59 283.69 163.07 284.05 C 163.09 283.33 163.12 281.90 163.14 281.18 C 163.68 280.97 164.78 280.53 165.33 280.31 C 165.38 280.28 165.47 280.22 165.51 280.18 Z" />
  <path fill="#d4cedf" opacity="1.00"
    d=" M 165.33 280.31 L 165.51 280.18 C 165.47 280.22 165.38 280.28 165.33 280.31 Z" />
</svg>